<?xml version="1.0" encoding="UTF-8" standalone="no"?>
<svg
   xmlns:dc="http://purl.org/dc/elements/1.1/"
   xmlns:cc="http://creativecommons.org/ns#"
   xmlns:rdf="http://www.w3.org/1999/02/22-rdf-syntax-ns#"
   xmlns:svg="http://www.w3.org/2000/svg"
   xmlns="http://www.w3.org/2000/svg"
   xmlns:sodipodi="http://sodipodi.sourceforge.net/DTD/sodipodi-0.dtd"
   xmlns:inkscape="http://www.inkscape.org/namespaces/inkscape"
   width="24"
   height="24"
   viewBox="0 0 24 24.000002"
   version="1.1"
   id="svg3354"
   inkscape:version="0.91 r13725"
   sodipodi:docname="icon.svg"
   inkscape:export-filename="C:\Users\Ulrich\U\ulrichb-ImplicitNullability\Doc\icon128.png"
   inkscape:export-xdpi="480"
   inkscape:export-ydpi="480">
  <metadata
     id="metadata3367">
    <rdf:RDF>
      <cc:Work
         rdf:about="">
        <dc:format>image/svg+xml</dc:format>
        <dc:type
           rdf:resource="http://purl.org/dc/dcmitype/StillImage" />
        <dc:title>IN</dc:title>
      </cc:Work>
    </rdf:RDF>
  </metadata>
  <sodipodi:namedview
     pagecolor="#ffffff"
     bordercolor="#666666"
     borderopacity="1"
     objecttolerance="10"
     gridtolerance="10"
     guidetolerance="10"
     inkscape:pageopacity="0"
     inkscape:pageshadow="2"
     inkscape:window-width="1807"
     inkscape:window-height="982"
     id="namedview3365"
     showgrid="false"
     fit-margin-top="0"
     fit-margin-left="0"
     fit-margin-right="0"
     fit-margin-bottom="0"
     inkscape:zoom="20.85965"
     inkscape:cx="10.528021"
     inkscape:cy="11.497913"
     inkscape:window-x="69"
     inkscape:window-y="5"
     inkscape:window-maximized="0"
     inkscape:current-layer="file-binary">
    <inkscape:grid
       type="xygrid"
       id="grid4211"
       originx="5.7381991"
       originy="0.037466479" />
  </sodipodi:namedview>
  <!-- Generator: Sketch 40.3 (33839) - http://www.bohemiancoding.com/sketch -->
  <title
     id="title3356">IN</title>
  <desc
     id="desc3358">Created with Sketch.</desc>
  <defs
     id="defs3360" />
  <g
     id="Octicons"
     style="fill:none;fill-rule:evenodd;stroke:none;stroke-width:1"
     transform="translate(5.7381992,7.9625346)">
    <g
       id="file-binary"
       style="fill:#000000">
      <rect
         id="rect3391"
         width="21.352982"
         height="19.558849"
         x="-4.308424"
         y="-5.7209353"
         style="fill:#ffffff;fill-opacity:0.57777782;stroke:#000000;stroke-width:1.33703673;stroke-linecap:round;stroke-linejoin:round;stroke-miterlimit:4;stroke-dasharray:none;stroke-opacity:1"
         ry="2"
         inkscape:export-xdpi="480"
         inkscape:export-ydpi="480"
         rx="2" />
      <g
         style="font-style:normal;font-variant:normal;font-weight:bold;font-stretch:normal;font-size:12.50000191px;line-height:125%;font-family:Consolas;-inkscape-font-specification:'Consolas, Bold';text-align:start;letter-spacing:0px;word-spacing:0px;writing-mode:lr-tb;text-anchor:start;fill:#000000;fill-opacity:1;stroke:none;stroke-width:1px;stroke-linecap:butt;stroke-linejoin:miter;stroke-opacity:1"
         id="text3385"
         transform="translate(-0.1917578,0.52733393)">
        <path
           d="m 4.9631385,0.45701714 q 0,1.17385846 -0.2516107,2.09982146 -0.2516109,0.9259628 -0.7404548,1.567575 -0.4816549,0.6343209 -1.1789763,0.9697091 -0.6973211,0.335388 -1.5959308,0.335388 -0.77639904,0 -1.43058748,-0.2770597 Q -0.88861015,4.8753913 -1.3630764,4.2848165 -1.8375425,3.6869507 -2.1035311,2.7609879 -2.3695196,1.835025 -2.3695196,0.54450974 q 0,-1.17385844 0.2516109,-2.09982114 0.2587996,-0.925963 0.7404546,-1.560284 0.48165511,-0.6416121 1.18616587,-0.9770002 0.70451054,-0.3353881 1.59593153,-0.3353881 0.7763988,0 1.4305866,0.2770597 0.6541882,0.2770599 1.1214654,0.8676345 0.4744661,0.5905748 0.7404547,1.5165378 0.2659885,0.92596268 0.2659885,2.22376884 z m -5.56419323,0.0291642 q 0,0.14582101 0,0.27705991 0,0.1239477 0.0143775,0.25518665 L 2.935874,-1.5626024 Q 2.6842633,-2.2844161 2.2673086,-2.6270953 1.8575427,-2.9770655 1.2968101,-2.9770655 q -0.40257714,0 -0.74764337,0.2114403 -0.34506624,0.2041494 -0.60386615,0.6343211 -0.25161098,0.4301718 -0.40257767,1.0790747 -0.14377764,0.64890311 -0.14377764,1.53841065 z m 3.79572863,0.0291642 q 0,-0.1239478 -0.00718,-0.24789561 -0.00718,-0.1312388 -0.00718,-0.24789551 L -0.32067723,2.5860029 q 0.23004436,0.7072314 0.64699961,1.0499106 0.41695515,0.3426792 0.97049872,0.3426792 0.4025773,0 0.7476434,-0.2114404 Q 2.3967082,3.5557119 2.648319,3.1328312 2.9071187,2.7026596 3.0508964,2.0537565 3.1946739,1.3975622 3.1946739,0.51534554 Z"
           id="path4865"
           inkscape:connector-curvature="0" />
        <path
           d="m 4.730101,9.2741417 -1.7037648,0 5.0178387,-10.6828409 1.7109539,0 z"
           id="path4867"
           inkscape:connector-curvature="0"
           sodipodi:nodetypes="ccccc" />
        <path
           d="m 8.9161756,11.401838 0,-1.582155 2.3938944,0 0,-6.1244786 L 9.2252951,4.8617717 8.6501896,3.4108535 11.63357,1.8141144 l 1.473721,0 0,8.0055686 2.063208,0 0,1.582155 -1.008877,0 z"
           id="path4869"
           inkscape:connector-curvature="0"
           sodipodi:nodetypes="ccccccccccccc" />
      </g>
    </g>
  </g>
</svg>
